<mxfile host="app.diagrams.net" agent="Mozilla/5.0 (Windows NT 10.0; Win64; x64) AppleWebKit/537.36 (KHTML, like Gecko) Chrome/135.0.0.0 Safari/537.36" version="26.2.14">
  <diagram name="Sayfa -1" id="XP8DEdcPiV8qCE_Pg85o">
    <mxGraphModel dx="735" dy="420" grid="1" gridSize="10" guides="1" tooltips="1" connect="1" arrows="1" fold="1" page="1" pageScale="1" pageWidth="827" pageHeight="1169" math="0" shadow="0">
      <root>
        <mxCell id="0" />
        <mxCell id="1" parent="0" />
        <mxCell id="1h9_-kaP54wuRgr0c51D-41" style="edgeStyle=orthogonalEdgeStyle;rounded=0;orthogonalLoop=1;jettySize=auto;html=1;exitX=0.5;exitY=1;exitDx=0;exitDy=0;entryX=0.5;entryY=0;entryDx=0;entryDy=0;strokeColor=#182E3E;" edge="1" parent="1" source="1h9_-kaP54wuRgr0c51D-1" target="1h9_-kaP54wuRgr0c51D-9">
          <mxGeometry relative="1" as="geometry" />
        </mxCell>
        <mxCell id="1h9_-kaP54wuRgr0c51D-1" value="Başla" style="ellipse;whiteSpace=wrap;html=1;labelBackgroundColor=none;fillColor=#56517E;strokeColor=#EEEEEE;fontColor=#FFFFFF;" vertex="1" parent="1">
          <mxGeometry x="250" width="120" height="80" as="geometry" />
        </mxCell>
        <mxCell id="1h9_-kaP54wuRgr0c51D-4" style="edgeStyle=orthogonalEdgeStyle;rounded=0;orthogonalLoop=1;jettySize=auto;html=1;exitX=1;exitY=0.5;exitDx=0;exitDy=0;entryX=1;entryY=0.5;entryDx=0;entryDy=0;labelBackgroundColor=none;fontColor=default;strokeColor=#182E3E;" edge="1" parent="1" source="1h9_-kaP54wuRgr0c51D-3">
          <mxGeometry relative="1" as="geometry">
            <mxPoint x="380" y="140" as="targetPoint" />
            <Array as="points">
              <mxPoint x="410" y="245" />
              <mxPoint x="410" y="140" />
            </Array>
          </mxGeometry>
        </mxCell>
        <mxCell id="1h9_-kaP54wuRgr0c51D-7" style="edgeStyle=orthogonalEdgeStyle;rounded=0;orthogonalLoop=1;jettySize=auto;html=1;entryX=0;entryY=0.5;entryDx=0;entryDy=0;labelBackgroundColor=none;fontColor=default;strokeColor=#182E3E;" edge="1" parent="1" source="1h9_-kaP54wuRgr0c51D-3" target="1h9_-kaP54wuRgr0c51D-10">
          <mxGeometry relative="1" as="geometry">
            <mxPoint x="260" y="340" as="targetPoint" />
            <Array as="points">
              <mxPoint x="240" y="245" />
              <mxPoint x="240" y="340" />
            </Array>
          </mxGeometry>
        </mxCell>
        <mxCell id="1h9_-kaP54wuRgr0c51D-43" style="edgeStyle=orthogonalEdgeStyle;rounded=0;orthogonalLoop=1;jettySize=auto;html=1;exitX=0.5;exitY=1;exitDx=0;exitDy=0;entryX=0.5;entryY=0;entryDx=0;entryDy=0;strokeColor=#182E3E;" edge="1" parent="1" source="1h9_-kaP54wuRgr0c51D-3" target="1h9_-kaP54wuRgr0c51D-10">
          <mxGeometry relative="1" as="geometry" />
        </mxCell>
        <mxCell id="1h9_-kaP54wuRgr0c51D-3" value="Giriş başarılı mı?" style="rhombus;whiteSpace=wrap;html=1;labelBackgroundColor=none;fillColor=#56517E;strokeColor=#EEEEEE;fontColor=#FFFFFF;" vertex="1" parent="1">
          <mxGeometry x="275" y="200" width="90" height="90" as="geometry" />
        </mxCell>
        <mxCell id="1h9_-kaP54wuRgr0c51D-5" value="Hayır" style="text;html=1;align=center;verticalAlign=middle;resizable=0;points=[];autosize=1;strokeColor=none;fillColor=none;labelBackgroundColor=none;fontColor=#FFFFFF;" vertex="1" parent="1">
          <mxGeometry x="365" y="218" width="50" height="30" as="geometry" />
        </mxCell>
        <mxCell id="1h9_-kaP54wuRgr0c51D-8" value="Evet" style="text;html=1;align=center;verticalAlign=middle;resizable=0;points=[];autosize=1;strokeColor=none;fillColor=none;labelBackgroundColor=none;fontColor=#FFFFFF;" vertex="1" parent="1">
          <mxGeometry x="225" y="218" width="50" height="30" as="geometry" />
        </mxCell>
        <mxCell id="1h9_-kaP54wuRgr0c51D-42" style="edgeStyle=orthogonalEdgeStyle;rounded=0;orthogonalLoop=1;jettySize=auto;html=1;exitX=0.5;exitY=1;exitDx=0;exitDy=0;entryX=0.5;entryY=0;entryDx=0;entryDy=0;strokeColor=#182E3E;" edge="1" parent="1" source="1h9_-kaP54wuRgr0c51D-9" target="1h9_-kaP54wuRgr0c51D-3">
          <mxGeometry relative="1" as="geometry" />
        </mxCell>
        <mxCell id="1h9_-kaP54wuRgr0c51D-9" value="Giriş Yap / Kayıt Ol" style="rounded=1;whiteSpace=wrap;html=1;labelBackgroundColor=none;fillColor=#56517E;strokeColor=#EEEEEE;fontColor=#FFFFFF;" vertex="1" parent="1">
          <mxGeometry x="250" y="110" width="120" height="60" as="geometry" />
        </mxCell>
        <mxCell id="1h9_-kaP54wuRgr0c51D-44" style="edgeStyle=orthogonalEdgeStyle;rounded=0;orthogonalLoop=1;jettySize=auto;html=1;exitX=0.5;exitY=1;exitDx=0;exitDy=0;entryX=0.5;entryY=0;entryDx=0;entryDy=0;strokeColor=#182E3E;" edge="1" parent="1" source="1h9_-kaP54wuRgr0c51D-10" target="1h9_-kaP54wuRgr0c51D-11">
          <mxGeometry relative="1" as="geometry" />
        </mxCell>
        <mxCell id="1h9_-kaP54wuRgr0c51D-10" value="Anasayfaya Yönlendirme" style="rounded=1;whiteSpace=wrap;html=1;labelBackgroundColor=none;fillColor=#56517E;strokeColor=#EEEEEE;fontColor=#FFFFFF;" vertex="1" parent="1">
          <mxGeometry x="280" y="310" width="120" height="60" as="geometry" />
        </mxCell>
        <mxCell id="1h9_-kaP54wuRgr0c51D-45" style="edgeStyle=orthogonalEdgeStyle;rounded=0;orthogonalLoop=1;jettySize=auto;html=1;exitX=0.5;exitY=1;exitDx=0;exitDy=0;entryX=0.5;entryY=0;entryDx=0;entryDy=0;strokeColor=#182E3E;" edge="1" parent="1" source="1h9_-kaP54wuRgr0c51D-11" target="1h9_-kaP54wuRgr0c51D-12">
          <mxGeometry relative="1" as="geometry" />
        </mxCell>
        <mxCell id="1h9_-kaP54wuRgr0c51D-11" value="Ürün arama /listeleme" style="rounded=1;whiteSpace=wrap;html=1;labelBackgroundColor=none;fillColor=#56517E;strokeColor=#EEEEEE;fontColor=#FFFFFF;" vertex="1" parent="1">
          <mxGeometry x="275" y="420" width="120" height="60" as="geometry" />
        </mxCell>
        <mxCell id="1h9_-kaP54wuRgr0c51D-13" style="edgeStyle=orthogonalEdgeStyle;rounded=0;orthogonalLoop=1;jettySize=auto;html=1;exitX=1;exitY=0.5;exitDx=0;exitDy=0;entryX=1;entryY=0.5;entryDx=0;entryDy=0;labelBackgroundColor=none;fontColor=default;strokeColor=#182E3E;" edge="1" parent="1" source="1h9_-kaP54wuRgr0c51D-12" target="1h9_-kaP54wuRgr0c51D-10">
          <mxGeometry relative="1" as="geometry">
            <mxPoint x="450" y="543.6470588235295" as="targetPoint" />
          </mxGeometry>
        </mxCell>
        <mxCell id="1h9_-kaP54wuRgr0c51D-16" style="edgeStyle=orthogonalEdgeStyle;rounded=0;orthogonalLoop=1;jettySize=auto;html=1;entryX=0;entryY=0.5;entryDx=0;entryDy=0;labelBackgroundColor=none;fontColor=default;strokeColor=#182E3E;" edge="1" parent="1" source="1h9_-kaP54wuRgr0c51D-12" target="1h9_-kaP54wuRgr0c51D-15">
          <mxGeometry relative="1" as="geometry">
            <Array as="points">
              <mxPoint x="250" y="544" />
              <mxPoint x="250" y="680" />
            </Array>
          </mxGeometry>
        </mxCell>
        <mxCell id="1h9_-kaP54wuRgr0c51D-46" style="edgeStyle=orthogonalEdgeStyle;rounded=0;orthogonalLoop=1;jettySize=auto;html=1;exitX=0.5;exitY=1;exitDx=0;exitDy=0;entryX=0.5;entryY=0;entryDx=0;entryDy=0;strokeColor=#182E3E;" edge="1" parent="1" source="1h9_-kaP54wuRgr0c51D-12" target="1h9_-kaP54wuRgr0c51D-15">
          <mxGeometry relative="1" as="geometry" />
        </mxCell>
        <mxCell id="1h9_-kaP54wuRgr0c51D-12" value="Ürün Aradı mı?" style="rhombus;whiteSpace=wrap;html=1;labelBackgroundColor=none;fillColor=#56517E;strokeColor=#EEEEEE;fontColor=#FFFFFF;" vertex="1" parent="1">
          <mxGeometry x="280" y="504" width="90" height="80" as="geometry" />
        </mxCell>
        <mxCell id="1h9_-kaP54wuRgr0c51D-14" value="Hayır" style="text;html=1;align=center;verticalAlign=middle;resizable=0;points=[];autosize=1;strokeColor=none;fillColor=none;labelBackgroundColor=none;fontColor=#FFFFFF;" vertex="1" parent="1">
          <mxGeometry x="375" y="518" width="50" height="30" as="geometry" />
        </mxCell>
        <mxCell id="1h9_-kaP54wuRgr0c51D-47" style="edgeStyle=orthogonalEdgeStyle;rounded=0;orthogonalLoop=1;jettySize=auto;html=1;exitX=0.5;exitY=1;exitDx=0;exitDy=0;strokeColor=#182E3E;" edge="1" parent="1" source="1h9_-kaP54wuRgr0c51D-15" target="1h9_-kaP54wuRgr0c51D-18">
          <mxGeometry relative="1" as="geometry" />
        </mxCell>
        <mxCell id="1h9_-kaP54wuRgr0c51D-15" value="Ürün sonuçlarını göster" style="rounded=1;whiteSpace=wrap;html=1;labelBackgroundColor=none;fillColor=#56517E;strokeColor=#EEEEEE;fontColor=#FFFFFF;" vertex="1" parent="1">
          <mxGeometry x="270" y="650" width="120" height="60" as="geometry" />
        </mxCell>
        <mxCell id="1h9_-kaP54wuRgr0c51D-17" value="Evet" style="text;html=1;align=center;verticalAlign=middle;resizable=0;points=[];autosize=1;strokeColor=none;fillColor=none;labelBackgroundColor=none;fontColor=#FFFFFF;" vertex="1" parent="1">
          <mxGeometry x="225" y="508" width="50" height="30" as="geometry" />
        </mxCell>
        <mxCell id="1h9_-kaP54wuRgr0c51D-48" style="edgeStyle=orthogonalEdgeStyle;rounded=0;orthogonalLoop=1;jettySize=auto;html=1;exitX=0.5;exitY=1;exitDx=0;exitDy=0;strokeColor=#182E3E;" edge="1" parent="1" source="1h9_-kaP54wuRgr0c51D-18">
          <mxGeometry relative="1" as="geometry">
            <mxPoint x="330" y="840" as="targetPoint" />
          </mxGeometry>
        </mxCell>
        <mxCell id="1h9_-kaP54wuRgr0c51D-18" value="Ürün detayına gir(fotoğraf, açıklama, fiyat, stok durumu, yol tarifi vs)" style="rounded=1;whiteSpace=wrap;html=1;labelBackgroundColor=none;fillColor=#56517E;strokeColor=#EEEEEE;fontColor=#FFFFFF;" vertex="1" parent="1">
          <mxGeometry x="280" y="740" width="120" height="60" as="geometry" />
        </mxCell>
        <mxCell id="1h9_-kaP54wuRgr0c51D-23" style="edgeStyle=orthogonalEdgeStyle;rounded=0;orthogonalLoop=1;jettySize=auto;html=1;exitX=0.5;exitY=0;exitDx=0;exitDy=0;entryX=0;entryY=0;entryDx=0;entryDy=0;labelBackgroundColor=none;fontColor=default;strokeColor=#182E3E;" edge="1" parent="1" source="1h9_-kaP54wuRgr0c51D-19" target="1h9_-kaP54wuRgr0c51D-22">
          <mxGeometry relative="1" as="geometry" />
        </mxCell>
        <mxCell id="1h9_-kaP54wuRgr0c51D-27" style="edgeStyle=orthogonalEdgeStyle;rounded=0;orthogonalLoop=1;jettySize=auto;html=1;exitX=0;exitY=0.5;exitDx=0;exitDy=0;entryX=0;entryY=0;entryDx=0;entryDy=0;labelBackgroundColor=none;fontColor=default;strokeColor=#182E3E;" edge="1" parent="1" source="1h9_-kaP54wuRgr0c51D-19" target="1h9_-kaP54wuRgr0c51D-24">
          <mxGeometry relative="1" as="geometry" />
        </mxCell>
        <mxCell id="1h9_-kaP54wuRgr0c51D-28" style="edgeStyle=orthogonalEdgeStyle;rounded=0;orthogonalLoop=1;jettySize=auto;html=1;entryX=0.5;entryY=0;entryDx=0;entryDy=0;labelBackgroundColor=none;fontColor=default;strokeColor=#182E3E;entryPerimeter=0;" edge="1" parent="1" source="1h9_-kaP54wuRgr0c51D-19" target="1h9_-kaP54wuRgr0c51D-30">
          <mxGeometry relative="1" as="geometry">
            <mxPoint x="440" y="930" as="targetPoint" />
          </mxGeometry>
        </mxCell>
        <mxCell id="1h9_-kaP54wuRgr0c51D-19" value="İşlem&lt;div&gt;&amp;nbsp;Seçimi&lt;/div&gt;" style="rhombus;whiteSpace=wrap;html=1;labelBackgroundColor=none;fillColor=#56517E;strokeColor=#EEEEEE;fontColor=#FFFFFF;" vertex="1" parent="1">
          <mxGeometry x="290" y="840" width="80" height="80" as="geometry" />
        </mxCell>
        <mxCell id="1h9_-kaP54wuRgr0c51D-34" style="edgeStyle=orthogonalEdgeStyle;rounded=0;orthogonalLoop=1;jettySize=auto;html=1;exitX=0.5;exitY=1;exitDx=0;exitDy=0;entryX=0.5;entryY=0;entryDx=0;entryDy=0;strokeColor=#182E3E;" edge="1" parent="1" source="1h9_-kaP54wuRgr0c51D-22" target="1h9_-kaP54wuRgr0c51D-33">
          <mxGeometry relative="1" as="geometry" />
        </mxCell>
        <mxCell id="1h9_-kaP54wuRgr0c51D-22" value="Ürün için mesaj gönder (stok sorusu vs.)" style="rounded=1;whiteSpace=wrap;html=1;absoluteArcSize=1;arcSize=14;strokeWidth=2;labelBackgroundColor=none;fillColor=#56517E;strokeColor=#EEEEEE;fontColor=#FFFFFF;" vertex="1" parent="1">
          <mxGeometry x="130" y="930" width="100" height="100" as="geometry" />
        </mxCell>
        <mxCell id="1h9_-kaP54wuRgr0c51D-24" value="Stok gelince haber ver isteği gönder" style="rounded=1;whiteSpace=wrap;html=1;absoluteArcSize=1;arcSize=14;strokeWidth=2;labelBackgroundColor=none;fillColor=#56517E;strokeColor=#EEEEEE;fontColor=#FFFFFF;" vertex="1" parent="1">
          <mxGeometry x="250" y="930" width="100" height="100" as="geometry" />
        </mxCell>
        <mxCell id="1h9_-kaP54wuRgr0c51D-35" style="edgeStyle=orthogonalEdgeStyle;rounded=0;orthogonalLoop=1;jettySize=auto;html=1;exitX=1;exitY=0.5;exitDx=0;exitDy=0;exitPerimeter=0;strokeColor=#182E3E;entryX=0.5;entryY=0;entryDx=0;entryDy=0;" edge="1" parent="1" source="1h9_-kaP54wuRgr0c51D-30" target="1h9_-kaP54wuRgr0c51D-37">
          <mxGeometry relative="1" as="geometry">
            <mxPoint x="560" y="990" as="targetPoint" />
          </mxGeometry>
        </mxCell>
        <mxCell id="1h9_-kaP54wuRgr0c51D-30" value="Yol tarifi alındı mı?" style="strokeWidth=2;html=1;shape=mxgraph.flowchart.decision;whiteSpace=wrap;strokeColor=#EEEEEE;fontColor=#FFFFFF;fillColor=#56517E;" vertex="1" parent="1">
          <mxGeometry x="390" y="940" width="100" height="100" as="geometry" />
        </mxCell>
        <mxCell id="1h9_-kaP54wuRgr0c51D-33" value="İşletmeye &quot;Sipariş veriyorum, hazırlanır mı?&quot; mesajı gönder" style="rounded=1;whiteSpace=wrap;html=1;absoluteArcSize=1;arcSize=14;strokeWidth=2;strokeColor=#EEEEEE;fontColor=#FFFFFF;fillColor=#56517E;" vertex="1" parent="1">
          <mxGeometry x="125" y="1050" width="100" height="100" as="geometry" />
        </mxCell>
        <mxCell id="1h9_-kaP54wuRgr0c51D-36" value="&lt;font style=&quot;color: rgb(51, 0, 26);&quot;&gt;Evet&lt;/font&gt;" style="text;html=1;align=center;verticalAlign=middle;resizable=0;points=[];autosize=1;strokeColor=none;fillColor=none;fontColor=#FFFFFF;" vertex="1" parent="1">
          <mxGeometry x="485" y="958" width="50" height="30" as="geometry" />
        </mxCell>
        <mxCell id="1h9_-kaP54wuRgr0c51D-37" value="&amp;nbsp;İşletmeye vardığında puanlama bildirimi gönder (10 dk sonra)" style="rounded=1;whiteSpace=wrap;html=1;absoluteArcSize=1;arcSize=14;strokeWidth=2;strokeColor=#EEEEEE;fontColor=#FFFFFF;fillColor=#56517E;" vertex="1" parent="1">
          <mxGeometry x="460" y="1050" width="100" height="100" as="geometry" />
        </mxCell>
        <mxCell id="1h9_-kaP54wuRgr0c51D-38" value="Bitiş" style="strokeWidth=2;html=1;shape=mxgraph.flowchart.start_1;whiteSpace=wrap;strokeColor=#EEEEEE;fontColor=#FFFFFF;fillColor=#56517E;" vertex="1" parent="1">
          <mxGeometry x="280" y="1200" width="100" height="60" as="geometry" />
        </mxCell>
        <mxCell id="1h9_-kaP54wuRgr0c51D-39" style="edgeStyle=orthogonalEdgeStyle;rounded=0;orthogonalLoop=1;jettySize=auto;html=1;exitX=0.5;exitY=1;exitDx=0;exitDy=0;entryX=0;entryY=0.5;entryDx=0;entryDy=0;entryPerimeter=0;strokeColor=#182E3E;" edge="1" parent="1" source="1h9_-kaP54wuRgr0c51D-33" target="1h9_-kaP54wuRgr0c51D-38">
          <mxGeometry relative="1" as="geometry" />
        </mxCell>
        <mxCell id="1h9_-kaP54wuRgr0c51D-40" style="edgeStyle=orthogonalEdgeStyle;rounded=0;orthogonalLoop=1;jettySize=auto;html=1;exitX=0.5;exitY=1;exitDx=0;exitDy=0;entryX=1;entryY=0.5;entryDx=0;entryDy=0;entryPerimeter=0;strokeColor=#182E3E;" edge="1" parent="1" source="1h9_-kaP54wuRgr0c51D-37" target="1h9_-kaP54wuRgr0c51D-38">
          <mxGeometry relative="1" as="geometry" />
        </mxCell>
      </root>
    </mxGraphModel>
  </diagram>
</mxfile>
